<svg width="20" height="20" viewBox="0 0 20 20" fill="none" xmlns="http://www.w3.org/2000/svg">
<path d="M13.375 9.89697C13.375 8.04129 11.875 6.55674 10 6.55674C8.125 6.55674 6.625 8.04129 6.625 9.89697C6.625 11.7527 8.125 13.2372 10 13.2372C11.875 13.2372 13.375 11.7527 13.375 9.89697ZM15.125 9.89697C15.125 12.7424 12.875 14.9692 10 14.9692C7.125 14.9692 4.875 12.7424 4.875 9.89697C4.875 7.05159 7.125 4.82477 10 4.82477C12.875 4.82477 15.125 7.05159 15.125 9.89697ZM16.5 4.57735C16.5 5.31962 16 5.81447 15.25 5.81447C14.5 5.81447 14 5.31962 14 4.57735C14 3.83508 14.5 3.34023 15.25 3.34023C16 3.34023 16.5 3.95879 16.5 4.57735ZM10 1.73197C8.5 1.73197 5.375 1.60826 4.125 2.10311C3.25 2.47424 2.5 3.21652 2.25 4.0825C1.75 5.31962 1.875 8.41243 1.875 9.89697C1.875 11.3815 1.75 14.4743 2.25 15.7114C2.5 16.5774 3.25 17.3197 4.125 17.5671C5.375 18.062 8.625 17.9383 10 17.9383C11.375 17.9383 14.625 18.062 15.875 17.5671C16.75 17.196 17.375 16.5774 17.75 15.7114C18.25 14.3506 18.125 11.2578 18.125 9.89697C18.125 8.53614 18.25 5.31962 17.75 4.0825C17.5 3.21652 16.75 2.47424 15.875 2.22682C14.625 1.60826 11.5 1.73197 10 1.73197ZM20 9.89697V13.9795C20 15.464 19.5 16.9486 18.375 18.1857C17.25 19.2991 15.75 19.7939 14.125 19.7939H5.875C4.375 19.7939 2.875 19.2991 1.625 18.1857C0.625 17.0723 0 15.5877 0 13.9795V9.89697V5.81447C0 4.20621 0.625 2.72167 1.625 1.60826C2.875 0.618561 4.375 0 5.875 0H14.125C15.625 0 17.125 0.494849 18.375 1.60826C19.375 2.72167 20 4.20621 20 5.81447V9.89697Z" fill="white"/>
</svg>
