<svg width="23" height="20" viewBox="0 0 23 20" fill="none" xmlns="http://www.w3.org/2000/svg">
<path d="M21.2973 0.00202668C21.0132 0.0218265 20.7344 0.0856729 20.4717 0.191075H20.4682C20.216 0.286871 19.0171 0.770089 17.1944 1.50255L10.6626 4.1382C5.97574 6.02869 1.36849 7.89035 1.36849 7.89035L1.42335 7.87C1.42335 7.87 1.1057 7.97004 0.773889 8.18791C0.568902 8.31288 0.392509 8.47641 0.255386 8.66858C0.0925789 8.89748 -0.0383742 9.2476 0.0102908 9.60959C0.0899245 10.2217 0.504019 10.5887 0.801319 10.7914C1.10216 10.9965 1.38884 11.0923 1.38884 11.0923H1.39592L5.71649 12.4869C5.91026 13.0828 7.0331 16.6196 7.30297 17.4343C7.46223 17.9209 7.61708 18.2253 7.81085 18.4576C7.90464 18.5762 8.01436 18.6754 8.1462 18.7551C8.21474 18.7933 8.28782 18.8235 8.36386 18.845L8.31962 18.8348C8.33289 18.8382 8.34351 18.8484 8.35325 18.8518C8.38864 18.8611 8.41253 18.8645 8.45765 18.8713C9.14162 19.0696 9.69109 18.6627 9.69109 18.6627L9.72206 18.639L12.273 16.4136L16.5484 19.5562L16.6458 19.5961C17.5368 19.9708 18.4393 19.7623 18.9162 19.3943C19.3967 19.0239 19.5834 18.55 19.5834 18.55L19.6143 18.4737L22.9182 2.25704C23.012 1.85691 23.0359 1.4822 22.9324 1.11851C22.8256 0.750443 22.5792 0.433877 22.2414 0.230919C21.9577 0.0657053 21.6288 -0.0140394 21.2973 0.00202668ZM21.2079 1.73992C21.2044 1.79332 21.215 1.78739 21.1902 1.88997V1.89929L17.9173 17.9472C17.9031 17.9701 17.8792 18.0201 17.8137 18.0701C17.7447 18.1227 17.6899 18.1558 17.4023 18.0464L12.173 14.2052L9.0142 16.9638L9.67782 12.9031L18.2216 5.27334C18.5738 4.95967 18.4561 4.89355 18.4561 4.89355C18.4809 4.50867 17.9243 4.7808 17.9243 4.7808L7.15078 11.1754L7.14724 11.1584L1.98344 9.4926V9.48921L1.97016 9.48666C1.97922 9.48378 1.98808 9.48038 1.99671 9.47649L2.02502 9.46293L2.05245 9.4536C2.05245 9.4536 6.66324 7.59194 11.3501 5.70146C13.6967 4.75452 16.0609 3.8008 17.8792 3.06495C19.6975 2.33334 21.0415 1.79672 21.1176 1.76789C21.1902 1.74076 21.1557 1.74076 21.2079 1.74076V1.73992Z" fill="white"/>
</svg>
