<svg width="29" height="20" viewBox="0 0 29 20" fill="none" xmlns="http://www.w3.org/2000/svg">
<path d="M0 2.72313C0 1.72758 0.554018 1.19076 1.66206 1.11268L5.93182 1.14196C6.21838 1.14196 6.40942 1.28836 6.50494 1.58117C6.94433 3.04522 7.43626 4.30919 7.98073 5.37306C8.5252 6.43694 9.23682 7.66186 10.1156 9.04782C10.192 9.22351 10.3162 9.31135 10.4881 9.31135C10.6219 9.31135 10.7269 9.24303 10.8034 9.10639L10.8893 8.7843L10.918 3.71869C10.918 3.36731 10.8368 3.13307 10.6744 3.01594C10.512 2.89882 10.2111 2.81097 9.77174 2.75241C9.42787 2.69385 9.25593 2.47912 9.25593 2.10823C9.25593 2.03015 9.26548 1.97159 9.28458 1.93254C9.68577 0.663702 10.832 0.029281 12.7233 0.029281L14.3281 0C15.054 0 15.6558 0.185446 16.1334 0.556339C16.611 0.927231 16.8498 1.51285 16.8498 2.3132V8.95998C16.9835 9.05758 17.1077 9.10639 17.2223 9.10639C17.5089 9.10639 17.7572 8.9307 17.9674 8.57933C20.0688 5.57315 21.2055 3.56252 21.3775 2.54745C21.3775 2.52793 21.3966 2.47912 21.4348 2.40104C21.5685 2.10823 21.7882 1.85446 22.0939 1.63974C22.3995 1.42501 22.667 1.2786 22.8962 1.20052C22.9727 1.16148 23.0586 1.14196 23.1542 1.14196H27.5958L27.8824 1.17124C28.2645 1.17124 28.5606 1.35669 28.7708 1.72758C28.8472 1.8447 28.8997 1.97159 28.9284 2.10823C28.957 2.24488 28.9761 2.38152 28.9857 2.51816C28.9952 2.65481 29 2.73289 29 2.75241V2.95738C28.8663 3.75773 28.5272 4.61175 27.9827 5.51947C27.4382 6.42718 26.7457 7.40809 25.9051 8.4622C25.0646 9.51632 24.5392 10.2093 24.3291 10.5412C24.1571 10.7754 24.0711 10.9901 24.0711 11.1853C24.0711 11.3415 24.1476 11.5172 24.3004 11.7124L28.4842 17.1001C28.7134 17.4124 28.8281 17.754 28.8281 18.1249C28.8281 18.5739 28.6561 18.9448 28.3123 19.2376C27.9684 19.5304 27.5576 19.6963 27.08 19.7354L26.5929 19.7647H22.2372C22.2181 19.7647 22.1798 19.7695 22.1225 19.7793C22.0652 19.7891 22.027 19.7939 22.0079 19.7939C21.5876 19.7939 21.196 19.6085 20.833 19.2376C20.6993 19.0814 19.8014 17.9297 18.1393 15.7825C18.0438 15.6458 17.9101 15.5189 17.7381 15.4018C17.6617 15.7141 17.5614 16.1631 17.4373 16.7487C17.3131 17.3343 17.2223 17.754 17.165 18.0078L17.0791 18.5056C16.888 19.1888 16.4868 19.5987 15.8755 19.7354L15.4743 19.7647H12.666C11.0804 19.7647 9.49951 19.0229 7.92342 17.5393C6.34733 16.0557 4.92885 14.1378 3.66798 11.7856C2.40711 9.43336 1.23221 6.69559 0.143281 3.57228C0.0477602 3.31851 0 3.03546 0 2.72313ZM17.2223 10.3069C16.8211 10.3069 16.4582 10.1947 16.1334 9.97018C15.8086 9.74569 15.6462 9.43824 15.6462 9.04782V2.3132C15.6462 1.92278 15.5507 1.64462 15.3597 1.47869C15.1686 1.31276 14.8343 1.2298 14.3567 1.2298L12.7233 1.28836C11.9018 1.28836 11.281 1.43477 10.8607 1.72758C11.7013 2.13751 12.1215 2.80121 12.1215 3.71869V8.87214C12.0833 9.36016 11.8923 9.76521 11.5484 10.0873C11.2045 10.4094 10.8225 10.5704 10.4022 10.5704C9.82905 10.5704 9.38966 10.2874 9.08399 9.72129C7.59387 7.41785 6.48584 5.23154 5.75988 3.16235L5.50198 2.40104L1.69071 2.37176C1.44236 2.37176 1.30385 2.3864 1.2752 2.41568C1.24654 2.44496 1.23221 2.52793 1.23221 2.66457C1.23221 2.84026 1.25132 3.0257 1.28953 3.22091L1.8913 4.86064C3.49605 9.09663 5.2393 12.4347 7.12105 14.8747C9.0028 17.3148 10.8511 18.5349 12.666 18.5349H15.5316C15.6462 18.5349 15.7322 18.5007 15.7895 18.4324C15.8468 18.3641 15.8946 18.2323 15.9328 18.0371L15.9901 17.7443L16.5346 15.1676C16.6874 14.8162 16.8211 14.5819 16.9358 14.4648C17.1459 14.2501 17.3943 14.1427 17.6808 14.1427C18.1393 14.1427 18.6074 14.4258 19.085 14.9919L21.5208 18.1542C21.6736 18.408 21.836 18.5349 22.0079 18.5349H26.7362C27.3093 18.5349 27.5958 18.3885 27.5958 18.0956C27.5958 17.998 27.5672 17.9004 27.5099 17.8028L23.3547 12.503C23.03 12.093 22.8676 11.6538 22.8676 11.1853C22.8676 10.7168 23.0204 10.2679 23.3261 9.83841C23.5744 9.448 24.0568 8.79894 24.7732 7.89123C25.4896 6.98351 26.1153 6.13437 26.6502 5.34378C27.1851 4.55319 27.5385 3.83581 27.7105 3.19163L27.7964 2.81097C27.7773 2.77193 27.7678 2.70849 27.7678 2.62065C27.7678 2.53281 27.7582 2.4596 27.7391 2.40104H23.2401C22.9536 2.51816 22.7243 2.69385 22.5524 2.9281L22.3804 3.48444C21.9028 4.83136 20.6515 6.91031 18.6265 9.72129C18.2253 10.1117 17.7572 10.3069 17.2223 10.3069Z" fill="white"/>
</svg>
